<svg xmlns="http://www.w3.org/2000/svg" xmlns:xlink="http://www.w3.org/1999/xlink" width="16" height="16" viewBox="0 0 16 16"><defs><style>.a,.c{fill:#fff;}.a{stroke:#707070;}.b{clip-path:url(#a);}</style><clipPath id="a"><rect class="a" width="16" height="16" transform="translate(1504 210)"/></clipPath></defs><g class="b" transform="translate(-1504 -210)"><g transform="translate(1504 210)"><path class="c" d="M10.38,14l5.386-5.386a.8.8,0,0,0,0-1.129L14.514,6.233a.8.8,0,0,0-1.129,0L8,11.62,2.614,6.234a.8.8,0,0,0-1.129,0L.234,7.485a.8.8,0,0,0,0,1.129L5.62,14,.234,19.386a.8.8,0,0,0,0,1.129l1.251,1.251a.8.8,0,0,0,1.129,0L8,16.38l5.386,5.386a.8.8,0,0,0,1.129,0l1.251-1.251a.8.8,0,0,0,0-1.129Z" transform="translate(0 -6)"/></g></g></svg>