<svg id="copy" xmlns="http://www.w3.org/2000/svg" width="20" height="22.857" viewBox="0 0 20 22.857">
  <path id="Path_385" data-name="Path 385" d="M19.372,2.944,17.056.628A2.143,2.143,0,0,0,15.541,0H7.857A2.143,2.143,0,0,0,5.714,2.143V4.286H2.143A2.143,2.143,0,0,0,0,6.429V20.714a2.143,2.143,0,0,0,2.143,2.143h10a2.143,2.143,0,0,0,2.143-2.143V18.571h3.571A2.143,2.143,0,0,0,20,16.429V4.459a2.143,2.143,0,0,0-.628-1.515Zm-7.5,17.77H2.411a.268.268,0,0,1-.268-.268V6.7a.268.268,0,0,1,.268-.268h3.3v10a2.143,2.143,0,0,0,2.143,2.143h4.286v1.875A.268.268,0,0,1,11.875,20.714Zm5.714-4.286H8.125a.268.268,0,0,1-.268-.268V2.411a.268.268,0,0,1,.268-.268h4.732V6.071a1.071,1.071,0,0,0,1.071,1.071h3.929v9.018A.268.268,0,0,1,17.589,16.429ZM17.857,5H15V2.143h.43a.268.268,0,0,1,.189.078l2.159,2.159a.268.268,0,0,1,.078.189Z" fill="#aa528d"/>
</svg>
