<svg xmlns="http://www.w3.org/2000/svg" xmlns:xlink="http://www.w3.org/1999/xlink" width="20" height="20" viewBox="0 0 20 20"><defs><style>.a{fill:#fff;}.b{clip-path:url(#a);}</style><clipPath id="a"><rect class="a" width="20" height="20" transform="translate(-0.654 -0.397)"/></clipPath></defs><g class="b" transform="translate(0.654 0.397)"><g transform="translate(0.226 0.183)"><path class="a" d="M17.235.115.453,9.8a.87.87,0,0,0,.08,1.564l3.849,1.615,10.4-9.168a.217.217,0,0,1,.311.3L6.373,14.736v2.915a.869.869,0,0,0,1.539.572l2.3-2.8,4.512,1.89a.871.871,0,0,0,1.195-.659L18.525,1.013A.869.869,0,0,0,17.235.115Z" transform="translate(-0.001 0.002)"/></g></g></svg>