<svg xmlns="http://www.w3.org/2000/svg" xmlns:xlink="http://www.w3.org/1999/xlink" width="20" height="20" viewBox="0 0 20 20"><defs><style>.a,.c{fill:#fff;}.a{stroke:#707070;}.b{clip-path:url(#a);}</style><clipPath id="a"><rect class="a" width="20" height="20" transform="translate(120 766)"/></clipPath></defs><g class="b" transform="translate(-120 -766)"><g transform="translate(119.677 765.677)"><path class="c" d="M14.988,9.6l-7.1-4.315a.969.969,0,0,0-1.44.847v8.387a.97.97,0,0,0,1.44.847l7.1-4.073A.971.971,0,0,0,14.988,9.6Zm5.335.726a10,10,0,1,0-10,10A10,10,0,0,0,20.323,10.323Zm-18.065,0a8.065,8.065,0,1,1,8.065,8.065A8.062,8.062,0,0,1,2.258,10.323Z"/></g></g></svg>