<svg xmlns="http://www.w3.org/2000/svg" xmlns:xlink="http://www.w3.org/1999/xlink" width="80" height="80" viewBox="0 0 478.131 489.941">
  <defs>
    <linearGradient id="linear-gradient" x1="0.748" y1="0.513" x2="0.062" y2="0.97" gradientUnits="objectBoundingBox">
      <stop offset="0" stop-color="#aa528d"/>
      <stop offset="1" stop-color="#e74043"/>
    </linearGradient>
    <linearGradient id="linear-gradient-2" x1="0.048" y1="0.023" x2="0.405" y2="0.848" gradientUnits="objectBoundingBox">
      <stop offset="0" stop-color="#be2f31"/>
      <stop offset="1" stop-color="#8f4075"/>
    </linearGradient>
    <filter id="Path_379" x="0" y="215.26" width="478.131" height="141.411" filterUnits="userSpaceOnUse">
      <feOffset dy="6" input="SourceAlpha"/>
      <feGaussianBlur stdDeviation="1" result="blur"/>
      <feFlood flood-opacity="0.161"/>
      <feComposite operator="in" in2="blur"/>
      <feComposite in="SourceGraphic"/>
    </filter>
  </defs>
  <g id="Vlive_claro" data-name="Vlive claro" transform="translate(1514.217 2087.565)">
    <path id="Path_380" data-name="Path 380" d="M201.15,7.373a20.924,20.924,0,0,1,31.886,0L429.163,238.112c11.551,13.59,1.893,34.476-15.943,34.476H20.964c-17.836,0-27.494-20.886-15.943-34.476Z" transform="matrix(0.259, 0.966, -0.966, 0.259, -1188.536, -2087.566)" fill="url(#linear-gradient)"/>
    <path id="Path_370" data-name="Path 370" d="M-1448.078-2041.971l97.3,335.74,170.465-208.809Z" transform="translate(31.227 21.056)" fill="url(#linear-gradient-2)"/>
    <g transform="matrix(1, 0, 0, 1, -1514.22, -2087.57)" filter="url(#Path_379)">
      <path id="Path_379-2" data-name="Path 379" d="M9.987-22.56a41.786,41.786,0,0,1-.525-10.159q.35-5.254.35-10.158A88.558,88.558,0,0,0,9.2-52.948Q8.586-58.29,8.148-63.194a82.294,82.294,0,0,1-.35-9.02,16.488,16.488,0,0,1,1.138-6.393,11.631,11.631,0,0,1,3.5-4.116,31.229,31.229,0,0,0,4.028-3.415,13.1,13.1,0,0,1,4.116,1.314,10.908,10.908,0,0,1,3.153,2.452,10.306,10.306,0,0,1,1.927,3.065,5.332,5.332,0,0,1,.263,3.153,20.623,20.623,0,0,1,7.093,7.093,38.857,38.857,0,0,1,4.2,9.808,67.943,67.943,0,0,1,2.1,11.3Q39.937-42,40.375-36.221t.876,10.947a41.475,41.475,0,0,0,1.664,9.02q7.706-11.209,13.048-19.879T66.735-52.772q5.43-7.969,12.173-16.2A240.448,240.448,0,0,1,96.159-87.539a15.122,15.122,0,0,1,3.5.876l2.452,1.051a12.491,12.491,0,0,0,2.627.788,12.447,12.447,0,0,0,3.853-.088q.876,2.1,1.314,3.065t.788,1.839q.35.876.876,2.277l1.576,4.2a2.635,2.635,0,0,1,.438,1.839,17.029,17.029,0,0,1-.263,2.014,4.062,4.062,0,0,0-.088,1.4q.088.525,1.138,0a16.244,16.244,0,0,1-2.277,5.342,9.124,9.124,0,0,0-1.4,5.692q-4.729,6.305-10.509,12.961T88.628-30.354q-5.78,7.269-11.122,15.063A92.673,92.673,0,0,0,68.486,1.26a2.141,2.141,0,0,0-1.576.525,6.882,6.882,0,0,0-.963,1.226l-.876,1.4a1.616,1.616,0,0,1-1.489.7,19.383,19.383,0,0,1-4.116,10.6A61.466,61.466,0,0,1,51.847,24.2a9.845,9.845,0,0,1,.35,2.277,8.911,8.911,0,0,1-.175,1.751,17.419,17.419,0,0,0-.263,1.839,11.293,11.293,0,0,0,.088,2.364,21.583,21.583,0,0,1-4.116,7.006,17.582,17.582,0,0,1-5.517,4.2,11.861,11.861,0,0,1-6.13,1.138,12.168,12.168,0,0,1-5.955-2.189,6.59,6.59,0,0,1-2.1-1.927q-.876-1.226-1.839-2.364t-1.927-2.1A4.98,4.98,0,0,0,21.9,34.888a11.041,11.041,0,0,0,.088-3.678,19.357,19.357,0,0,0-.788-3.5A11.028,11.028,0,0,0,19.97,25.08q-.7-1.051-1.4-1.051-.7-4.379-1.839-9.545T14.453,4.238Q13.315-.842,12.614-5.746a49.919,49.919,0,0,1-.525-9.108,6.293,6.293,0,0,0-.788-3.766A11.2,11.2,0,0,1,9.987-22.56ZM126.311,38.435a5.421,5.421,0,0,1-.92-1.248,7.372,7.372,0,0,1-.657-1.9,17.263,17.263,0,0,1-2.89-5.123,27.7,27.7,0,0,1-1.445-5.977,29.677,29.677,0,0,1-.131-6.24,39.793,39.793,0,0,1,.92-5.911,25.425,25.425,0,0,0,.657-2.759q.657-2.5,1.314-4.926a10.408,10.408,0,0,1,1.97-4.006,4.39,4.39,0,0,1,.131-3.153q.657-1.708,1.314-3.153a4.026,4.026,0,0,0,.394-.722q.131-.328.263-.591,1.576-4.6,3.087-8.867t2.956-8.21q2.627-7.225,5.057-14.187t4.4-14.844a6.834,6.834,0,0,1,1.839-1.051,5.1,5.1,0,0,1,.657-.263,2.912,2.912,0,0,1,.92-.131,44.215,44.215,0,0,0,6.5,2.693,20.772,20.772,0,0,0,6.371,1.248l2.233,1.97a26.517,26.517,0,0,1,2.956,4.138,8.435,8.435,0,0,1,.722,5.583,4.337,4.337,0,0,1-1.314,1.445,45.018,45.018,0,0,1-1.708,5.32q-.92,2.3-1.839,4.4-1.051,2.364-1.97,4.729a33.719,33.719,0,0,0-1.576,5.78,4.72,4.72,0,0,0-.985,1.576q-.2.657-.46,1.314a16.027,16.027,0,0,1-.657,1.642,4.313,4.313,0,0,1-1.182,1.511,26.861,26.861,0,0,1-1.576,6.634q-1.051,2.562-2.1,5.057-1.839,4.6-3.415,9.13a36.382,36.382,0,0,0-1.839,10.312,11.993,11.993,0,0,1,2.89-.394,10.316,10.316,0,0,1,3.284.525,28.9,28.9,0,0,1,10.312-2.89q5.583-.525,11.1-.657,4.6,0,8.538-.394a6.314,6.314,0,0,0,1.708.985,9.06,9.06,0,0,0,1.314.066h.788a5.651,5.651,0,0,1,1.051.131,11.572,11.572,0,0,0,3.547,2.562q1.708.722,3.678,1.379,1.708.657,3.35,1.379a16.341,16.341,0,0,1,3.218,1.9l1.182,6.7q1.051,1.445.92,1.97a3.238,3.238,0,0,1-.525,1.839l.263,1.708a9.4,9.4,0,0,0-3.284,1.117,16.3,16.3,0,0,0-1.708,1.511q-1.445.131-2.759.131a19.556,19.556,0,0,0-5.386.788,25.013,25.013,0,0,0-8.67-1.445q-1.839,0-3.744.131t-3.744.394q-1.97.263-3.941.46t-3.941.2q-1.576.263-2.233.394a7.489,7.489,0,0,0-1.314.394q-4.466,1.445-9.655,2.89A38.762,38.762,0,0,1,140.1,44.872q-7.75,0-12.479-3.941a12.516,12.516,0,0,0-.788-1.576A8.588,8.588,0,0,1,126.311,38.435Zm93.318,6.437a9.276,9.276,0,0,1-2.956-3.021,20.254,20.254,0,0,1-1.839-3.941,34.087,34.087,0,0,1-1.182-4.4q-.46-2.3-.985-4.4a3.88,3.88,0,0,1,.788-2.693,20.293,20.293,0,0,1,1.708-1.642,49.792,49.792,0,0,0,5.648-.525q2.5-.394,4.86-.788t4.729-.722a37.33,37.33,0,0,1,5.123-.328q1.97-4.072,3.678-7.816t3.284-7.159a35.7,35.7,0,0,1,2.036-6.108q1.248-2.824,2.43-5.386t2.1-5.123a21.95,21.95,0,0,0,1.182-5.451q1.576-4.6,2.824-8.473a50.449,50.449,0,0,0,1.9-9.261q-4.992.788-8.013,1.511a22.047,22.047,0,0,0-4.335,1.379,8.811,8.811,0,0,1-4.138-1.051,7.972,7.972,0,0,1-2.43-2.233,14.02,14.02,0,0,1-1.576-3.021q-.657-1.708-1.576-3.547a6.958,6.958,0,0,0,.263-3.481,4.772,4.772,0,0,0-1.576-3.35,2.426,2.426,0,0,0,1.576-1.773,3.054,3.054,0,0,0,.131-2.3,23.187,23.187,0,0,1,4.729-.854q2.5-.2,4.926-.394t4.663-.525a9.184,9.184,0,0,0,3.809-1.379q6.831-.263,14.253-.525t13.727-.657a17.231,17.231,0,0,0,5.451.788,48.708,48.708,0,0,1,6.174.394,15.668,15.668,0,0,1,5.517,1.708,7.068,7.068,0,0,1,3.35,4.6,5.983,5.983,0,0,1,2.956,1.051,3.4,3.4,0,0,1,1.248,1.9,9.028,9.028,0,0,1,.2,2.5q-.066,1.379-.066,2.693a17.2,17.2,0,0,1-5.32,2.562,50.477,50.477,0,0,1-7.028,1.576,75.142,75.142,0,0,1-7.947.788q-4.138.2-8.079.328a86.2,86.2,0,0,1-2.3,10.18q-1.642,5.846-3.35,11.428t-2.956,9.983a20.583,20.583,0,0,0-1.117,5.714q-1.314,3.021-2.167,5.123t-1.576,3.941q-.722,1.839-1.445,3.612t-1.773,4.006H268.1a2.655,2.655,0,0,0,1.182,1.97,13.559,13.559,0,0,0,1.97.92,8.689,8.689,0,0,1,1.9.985,2.152,2.152,0,0,1,.854,1.9q2.5.657,3.153,1.97a4.161,4.161,0,0,1,.328,2.824,9.776,9.776,0,0,1-1.314,3.087,33,33,0,0,1-1.9,2.759,2.534,2.534,0,0,0-2.233.591,16.146,16.146,0,0,0-1.97,1.9,30.687,30.687,0,0,0-7.488-.131q-3.678.394-6.831.657-.657.131-.525.722a.737.737,0,0,1-.263.854,22.446,22.446,0,0,0-8.341-1.051,55.162,55.162,0,0,0-8.67,1.248q-4.4.985-9,2.1A44.666,44.666,0,0,1,219.629,44.872ZM310.582-6.1a31.34,31.34,0,0,1-.394-7.619q.263-3.941.263-7.619a66.422,66.422,0,0,0-.46-7.553q-.46-4.006-.788-7.685a61.727,61.727,0,0,1-.263-6.765,12.366,12.366,0,0,1,.854-4.795,8.723,8.723,0,0,1,2.627-3.087,23.422,23.422,0,0,0,3.021-2.562,9.823,9.823,0,0,1,3.087.985,8.181,8.181,0,0,1,2.364,1.839,7.729,7.729,0,0,1,1.445,2.3,4,4,0,0,1,.2,2.364,15.467,15.467,0,0,1,5.32,5.32,29.143,29.143,0,0,1,3.153,7.356,50.96,50.96,0,0,1,1.576,8.473q.46,4.466.788,8.8t.657,8.21a31.106,31.106,0,0,0,1.248,6.765q5.78-8.407,9.786-14.909t8.079-12.479q4.072-5.977,9.13-12.151A180.341,180.341,0,0,1,375.211-54.83a11.341,11.341,0,0,1,2.627.657l1.839.788a9.368,9.368,0,0,0,1.97.591,9.335,9.335,0,0,0,2.89-.066q.657,1.576.985,2.3t.591,1.379q.263.657.657,1.708l1.182,3.153a1.976,1.976,0,0,1,.328,1.379,12.768,12.768,0,0,1-.2,1.511,3.046,3.046,0,0,0-.066,1.051q.066.394.854,0a12.183,12.183,0,0,1-1.708,4.006,6.843,6.843,0,0,0-1.051,4.269q-3.547,4.729-7.882,9.721t-8.67,10.443q-4.335,5.451-8.341,11.3a69.505,69.505,0,0,0-6.765,12.414,1.606,1.606,0,0,0-1.182.394,5.161,5.161,0,0,0-.722.92l-.657,1.051a1.212,1.212,0,0,1-1.117.525,14.537,14.537,0,0,1-3.087,7.947,46.1,46.1,0,0,1-5.714,6.371,7.383,7.383,0,0,1,.263,1.708A6.684,6.684,0,0,1,342.109,32a13.064,13.064,0,0,0-.2,1.379,8.471,8.471,0,0,0,.066,1.773,16.187,16.187,0,0,1-3.087,5.254,13.186,13.186,0,0,1-4.138,3.153,8.9,8.9,0,0,1-4.6.854,9.126,9.126,0,0,1-4.466-1.642,4.942,4.942,0,0,1-1.576-1.445q-.657-.92-1.379-1.773t-1.445-1.576a3.735,3.735,0,0,0-1.773-.985,8.281,8.281,0,0,0,.066-2.759,14.518,14.518,0,0,0-.591-2.627,8.271,8.271,0,0,0-.92-1.97q-.525-.788-1.051-.788-.525-3.284-1.379-7.159T313.932,14q-.854-3.809-1.379-7.488a37.442,37.442,0,0,1-.394-6.831,4.72,4.72,0,0,0-.591-2.824A8.4,8.4,0,0,1,310.582-6.1Zm88.983,44.925a6.085,6.085,0,0,1-1.511-2.5,4.175,4.175,0,0,0-2.167-2.364q-.263-1.97-.723-4.532t-.919-5.254q-.46-2.693-.657-5.386a19.99,19.99,0,0,1,.2-4.926,8.125,8.125,0,0,1,.854-2.233q.591-1.051,1.182-2.036a9.4,9.4,0,0,0,.92-2.036,3.815,3.815,0,0,0,.066-2.1,1.123,1.123,0,0,0,.985-.854q.2-.722,1.248-.46.92-2.89,1.97-5.386t2.233-4.86q1.182-2.364,2.43-4.795a42.543,42.543,0,0,0,2.3-5.451,12.922,12.922,0,0,1-3.218-4.532,28.988,28.988,0,0,1-1.511-4.926,48.6,48.6,0,0,1-.788-5.057,27.975,27.975,0,0,0-1.051-5.189,13.968,13.968,0,0,1,3.809-3.875,22.618,22.618,0,0,1,4.926-2.5,36.675,36.675,0,0,1,5.846-1.576q3.153-.591,6.7-1.379,6.305-1.97,11.3-3.087T443.7-50.3q4.729-.722,9.852-1.314t11.822-1.773q.131.394.46.394h.854a1.441,1.441,0,0,0,1.445.92,3.69,3.69,0,0,0-.066-.722,3.043,3.043,0,0,1-.066-.591,2.818,2.818,0,0,1,.722.131,8.264,8.264,0,0,1,.788.263.572.572,0,0,0,.591-.066q.263-.2.131-.854a13.992,13.992,0,0,0,4.072,4.532,30.453,30.453,0,0,0,5.517,3.087,8.208,8.208,0,0,1,.066,1.708,6.535,6.535,0,0,1-.2.985,3.831,3.831,0,0,0-.131,1.051,7.263,7.263,0,0,0,.263,1.642,18.179,18.179,0,0,1-4.795,5.517,21.735,21.735,0,0,1-5.714,3.021,36.635,36.635,0,0,1-6.371,1.576q-3.35.525-6.831,1.117a60.224,60.224,0,0,0-7.028,1.642,28.988,28.988,0,0,0-6.962,3.153,4.482,4.482,0,0,0-1.9-.328,8.962,8.962,0,0,0-1.773.328q-.92.263-2.036.525a6.917,6.917,0,0,1-2.693,0,6.247,6.247,0,0,1-2.43,1.314q-1.379.394-2.824.788a6.231,6.231,0,0,1,.591,2.89,6.283,6.283,0,0,0,.328,2.5,67.2,67.2,0,0,0,12.216-.066q6.7-.591,13.136-.854a1,1,0,0,1-.131.92,1.282,1.282,0,0,0-.263.92,11.636,11.636,0,0,1,2.233,1.97q1.051,1.182,2.167,2.3a12.453,12.453,0,0,0,2.3,1.839,4.447,4.447,0,0,0,2.759.591,10.229,10.229,0,0,1,.92,2.759,5.291,5.291,0,0,1-.394,3.021Q461.7-1.761,459.2.012a48.723,48.723,0,0,1-5.189,3.218A30.217,30.217,0,0,1,448.169,5.6a21.529,21.529,0,0,1-6.831.788h-1.117a1.945,1.945,0,0,1-1.117-.525,6.485,6.485,0,0,1-3.481.46,7.137,7.137,0,0,0-3.612.46,12.676,12.676,0,0,0-4.269-.657,12.676,12.676,0,0,1-4.269-.657q-2.364,3.415-4.466,7.159a57.312,57.312,0,0,0-3.678,7.947,50.8,50.8,0,0,0,8.932.657q3.547-.131,6.7-.525t6.5-.788a58.414,58.414,0,0,1,8.21-.263,25.439,25.439,0,0,1,7.553-2.167,47.032,47.032,0,0,0,7.947-1.773,4.538,4.538,0,0,1,2.233,1.511q.92,1.117,1.773,2.233a12.475,12.475,0,0,0,1.773,1.9,2.708,2.708,0,0,0,2.364.525,3.1,3.1,0,0,1,.854,1.576q.2.92.394,1.708a3.014,3.014,0,0,0,.591,1.248,1.571,1.571,0,0,0,1.445.328,25.289,25.289,0,0,1-5.583,7.882,22.781,22.781,0,0,1-6.962,4.269,40.438,40.438,0,0,1-8.67,2.233q-4.795.722-10.706,1.773a4.934,4.934,0,0,1-2.43-.066,6.4,6.4,0,0,0-2.036-.328q-3.678.657-8.735,1.314a65.827,65.827,0,0,1-10.18.525,45.29,45.29,0,0,1-9.852-1.314A17.154,17.154,0,0,1,399.566,38.829Z" transform="translate(-4.78 302.8)" fill="#fff"/>
    </g>
  </g>
</svg>
